#N canvas 1127 328 463 383 12;
#X obj 194 325 ctlout 1 1;
#X obj 194 262 * 128;
#X obj 194 230 / 100;
#X floatatom 194 199 5 0 0 0 - - -;
#X obj 194 41 adc~;
#X floatatom 194 294 5 0 0 0 - - -;
#X obj 265 103 hsl 128 20 0.1 500 0 0 empty empty empty -2 -8 0 10
-262144 -1 -1 0 1;
#X obj 194 135 /~;
#X obj 194 167 env~ 512;
#X obj 194 75 bp~ 400 1.4;
#X connect 1 0 5 0;
#X connect 2 0 1 0;
#X connect 3 0 2 0;
#X connect 4 0 9 0;
#X connect 5 0 0 0;
#X connect 6 0 7 1;
#X connect 7 0 8 0;
#X connect 8 0 3 0;
#X connect 9 0 7 0;
